<mxfile host="app.diagrams.net" modified="2023-10-24T13:19:56.705Z" agent="Mozilla/5.0 (Windows NT 10.0; Win64; x64) AppleWebKit/537.36 (KHTML, like Gecko) Chrome/118.0.0.0 Safari/537.36" etag="M4eibbF7R0HShGl1RoZ7" version="22.0.6" type="github">
  <diagram name="Page-1" id="pALGI_POLg2eGDFnsm6z">
    <mxGraphModel dx="1823" dy="804" grid="1" gridSize="10" guides="1" tooltips="1" connect="1" arrows="1" fold="1" page="1" pageScale="2" pageWidth="850" pageHeight="1100" math="0" shadow="0">
      <root>
        <mxCell id="0" />
        <mxCell id="1" parent="0" />
        <mxCell id="QVCPTjEd-6tTPL3POaar-1" value="Department" style="rounded=0;whiteSpace=wrap;html=1;" vertex="1" parent="1">
          <mxGeometry x="580" y="110" width="120" height="50" as="geometry" />
        </mxCell>
        <mxCell id="QVCPTjEd-6tTPL3POaar-2" value="&lt;u&gt;Department&lt;br&gt;Name&lt;/u&gt;" style="ellipse;whiteSpace=wrap;html=1;" vertex="1" parent="1">
          <mxGeometry x="475" y="30" width="120" height="50" as="geometry" />
        </mxCell>
        <mxCell id="QVCPTjEd-6tTPL3POaar-3" value="Location" style="ellipse;whiteSpace=wrap;html=1;" vertex="1" parent="1">
          <mxGeometry x="680" y="30" width="120" height="50" as="geometry" />
        </mxCell>
        <mxCell id="QVCPTjEd-6tTPL3POaar-4" value="" style="endArrow=none;html=1;rounded=0;entryX=0;entryY=1;entryDx=0;entryDy=0;exitX=0.628;exitY=0;exitDx=0;exitDy=0;exitPerimeter=0;" edge="1" parent="1" source="QVCPTjEd-6tTPL3POaar-1" target="QVCPTjEd-6tTPL3POaar-3">
          <mxGeometry width="50" height="50" relative="1" as="geometry">
            <mxPoint x="660" y="121.42" as="sourcePoint" />
            <mxPoint x="723.84" y="50.00000000000004" as="targetPoint" />
            <Array as="points" />
          </mxGeometry>
        </mxCell>
        <mxCell id="QVCPTjEd-6tTPL3POaar-6" value="" style="endArrow=none;html=1;rounded=0;entryX=0.772;entryY=0.94;entryDx=0;entryDy=0;entryPerimeter=0;" edge="1" parent="1" target="QVCPTjEd-6tTPL3POaar-2">
          <mxGeometry width="50" height="50" relative="1" as="geometry">
            <mxPoint x="615" y="110" as="sourcePoint" />
            <mxPoint x="550" y="60" as="targetPoint" />
          </mxGeometry>
        </mxCell>
        <mxCell id="QVCPTjEd-6tTPL3POaar-7" value="Offers" style="rhombus;whiteSpace=wrap;html=1;" vertex="1" parent="1">
          <mxGeometry x="470" y="200" width="80" height="70" as="geometry" />
        </mxCell>
        <mxCell id="QVCPTjEd-6tTPL3POaar-8" value="Has" style="rhombus;whiteSpace=wrap;html=1;" vertex="1" parent="1">
          <mxGeometry x="740" y="200" width="80" height="70" as="geometry" />
        </mxCell>
        <mxCell id="QVCPTjEd-6tTPL3POaar-9" value="Course" style="rounded=0;whiteSpace=wrap;html=1;" vertex="1" parent="1">
          <mxGeometry x="450" y="300" width="120" height="40" as="geometry" />
        </mxCell>
        <mxCell id="QVCPTjEd-6tTPL3POaar-10" value="Instructor" style="rounded=0;whiteSpace=wrap;html=1;" vertex="1" parent="1">
          <mxGeometry x="720" y="300" width="120" height="40" as="geometry" />
        </mxCell>
        <mxCell id="QVCPTjEd-6tTPL3POaar-11" value="is&lt;br&gt;thaught&lt;br&gt;by" style="rhombus;whiteSpace=wrap;html=1;" vertex="1" parent="1">
          <mxGeometry x="600" y="290" width="80" height="60" as="geometry" />
        </mxCell>
        <mxCell id="QVCPTjEd-6tTPL3POaar-14" value="" style="endArrow=none;html=1;rounded=0;entryX=0;entryY=0.5;entryDx=0;entryDy=0;" edge="1" parent="1" target="QVCPTjEd-6tTPL3POaar-11">
          <mxGeometry width="50" height="50" relative="1" as="geometry">
            <mxPoint x="570" y="320" as="sourcePoint" />
            <mxPoint x="620" y="270" as="targetPoint" />
          </mxGeometry>
        </mxCell>
        <mxCell id="QVCPTjEd-6tTPL3POaar-15" value="" style="endArrow=none;html=1;rounded=0;entryX=0;entryY=0.5;entryDx=0;entryDy=0;exitX=1;exitY=0.5;exitDx=0;exitDy=0;" edge="1" parent="1" source="QVCPTjEd-6tTPL3POaar-11" target="QVCPTjEd-6tTPL3POaar-10">
          <mxGeometry width="50" height="50" relative="1" as="geometry">
            <mxPoint x="620" y="240" as="sourcePoint" />
            <mxPoint x="670" y="190" as="targetPoint" />
          </mxGeometry>
        </mxCell>
        <mxCell id="QVCPTjEd-6tTPL3POaar-16" value="" style="endArrow=none;html=1;rounded=0;" edge="1" parent="1">
          <mxGeometry width="50" height="50" relative="1" as="geometry">
            <mxPoint x="640" y="180" as="sourcePoint" />
            <mxPoint x="640" y="160" as="targetPoint" />
          </mxGeometry>
        </mxCell>
        <mxCell id="QVCPTjEd-6tTPL3POaar-17" value="" style="endArrow=none;html=1;rounded=0;" edge="1" parent="1">
          <mxGeometry width="50" height="50" relative="1" as="geometry">
            <mxPoint x="510" y="180" as="sourcePoint" />
            <mxPoint x="640" y="180" as="targetPoint" />
          </mxGeometry>
        </mxCell>
        <mxCell id="QVCPTjEd-6tTPL3POaar-18" value="" style="endArrow=none;html=1;rounded=0;" edge="1" parent="1">
          <mxGeometry width="50" height="50" relative="1" as="geometry">
            <mxPoint x="640" y="180" as="sourcePoint" />
            <mxPoint x="780" y="180" as="targetPoint" />
          </mxGeometry>
        </mxCell>
        <mxCell id="QVCPTjEd-6tTPL3POaar-19" value="" style="endArrow=none;html=1;rounded=0;exitX=0.5;exitY=0;exitDx=0;exitDy=0;" edge="1" parent="1" source="QVCPTjEd-6tTPL3POaar-7">
          <mxGeometry width="50" height="50" relative="1" as="geometry">
            <mxPoint x="610" y="280" as="sourcePoint" />
            <mxPoint x="510" y="180" as="targetPoint" />
          </mxGeometry>
        </mxCell>
        <mxCell id="QVCPTjEd-6tTPL3POaar-20" value="" style="endArrow=none;html=1;rounded=0;exitX=0.5;exitY=0;exitDx=0;exitDy=0;" edge="1" parent="1" source="QVCPTjEd-6tTPL3POaar-8">
          <mxGeometry width="50" height="50" relative="1" as="geometry">
            <mxPoint x="610" y="280" as="sourcePoint" />
            <mxPoint x="780" y="180" as="targetPoint" />
          </mxGeometry>
        </mxCell>
        <mxCell id="QVCPTjEd-6tTPL3POaar-21" value="1" style="text;html=1;align=center;verticalAlign=middle;resizable=0;points=[];autosize=1;strokeColor=none;fillColor=none;" vertex="1" parent="1">
          <mxGeometry x="505" y="148" width="30" height="30" as="geometry" />
        </mxCell>
        <mxCell id="QVCPTjEd-6tTPL3POaar-22" value="1" style="text;html=1;align=center;verticalAlign=middle;resizable=0;points=[];autosize=1;strokeColor=none;fillColor=none;" vertex="1" parent="1">
          <mxGeometry x="745" y="148" width="30" height="30" as="geometry" />
        </mxCell>
        <mxCell id="QVCPTjEd-6tTPL3POaar-23" value="" style="endArrow=none;html=1;rounded=0;exitX=0.5;exitY=0;exitDx=0;exitDy=0;entryX=0.5;entryY=1;entryDx=0;entryDy=0;" edge="1" parent="1" source="QVCPTjEd-6tTPL3POaar-9" target="QVCPTjEd-6tTPL3POaar-7">
          <mxGeometry width="50" height="50" relative="1" as="geometry">
            <mxPoint x="610" y="280" as="sourcePoint" />
            <mxPoint x="660" y="230" as="targetPoint" />
          </mxGeometry>
        </mxCell>
        <mxCell id="QVCPTjEd-6tTPL3POaar-24" value="" style="endArrow=none;html=1;rounded=0;entryX=0.5;entryY=1;entryDx=0;entryDy=0;exitX=0.5;exitY=0;exitDx=0;exitDy=0;" edge="1" parent="1" source="QVCPTjEd-6tTPL3POaar-10" target="QVCPTjEd-6tTPL3POaar-8">
          <mxGeometry width="50" height="50" relative="1" as="geometry">
            <mxPoint x="610" y="280" as="sourcePoint" />
            <mxPoint x="660" y="230" as="targetPoint" />
          </mxGeometry>
        </mxCell>
        <mxCell id="QVCPTjEd-6tTPL3POaar-25" value="M" style="text;html=1;align=center;verticalAlign=middle;resizable=0;points=[];autosize=1;strokeColor=none;fillColor=none;" vertex="1" parent="1">
          <mxGeometry x="475" y="268" width="30" height="30" as="geometry" />
        </mxCell>
        <mxCell id="QVCPTjEd-6tTPL3POaar-26" value="M" style="text;html=1;align=center;verticalAlign=middle;resizable=0;points=[];autosize=1;strokeColor=none;fillColor=none;" vertex="1" parent="1">
          <mxGeometry x="735" y="268" width="30" height="30" as="geometry" />
        </mxCell>
        <mxCell id="QVCPTjEd-6tTPL3POaar-27" value="M" style="text;html=1;align=center;verticalAlign=middle;resizable=0;points=[];autosize=1;strokeColor=none;fillColor=none;" vertex="1" parent="1">
          <mxGeometry x="570" y="290" width="30" height="30" as="geometry" />
        </mxCell>
        <mxCell id="QVCPTjEd-6tTPL3POaar-28" value="1" style="text;html=1;align=center;verticalAlign=middle;resizable=0;points=[];autosize=1;strokeColor=none;fillColor=none;" vertex="1" parent="1">
          <mxGeometry x="680" y="290" width="30" height="30" as="geometry" />
        </mxCell>
        <mxCell id="QVCPTjEd-6tTPL3POaar-29" value="Enrolled&lt;br&gt;By" style="rhombus;whiteSpace=wrap;html=1;" vertex="1" parent="1">
          <mxGeometry x="465" y="380" width="90" height="60" as="geometry" />
        </mxCell>
        <mxCell id="QVCPTjEd-6tTPL3POaar-30" value="" style="endArrow=none;html=1;rounded=0;entryX=0.5;entryY=1;entryDx=0;entryDy=0;" edge="1" parent="1" source="QVCPTjEd-6tTPL3POaar-29" target="QVCPTjEd-6tTPL3POaar-9">
          <mxGeometry width="50" height="50" relative="1" as="geometry">
            <mxPoint x="510" y="370" as="sourcePoint" />
            <mxPoint x="660" y="230" as="targetPoint" />
          </mxGeometry>
        </mxCell>
        <mxCell id="QVCPTjEd-6tTPL3POaar-31" value="Student" style="rounded=0;whiteSpace=wrap;html=1;" vertex="1" parent="1">
          <mxGeometry x="450" y="470" width="120" height="30" as="geometry" />
        </mxCell>
        <mxCell id="QVCPTjEd-6tTPL3POaar-32" value="" style="endArrow=none;html=1;rounded=0;exitX=0.5;exitY=0;exitDx=0;exitDy=0;entryX=0.5;entryY=1;entryDx=0;entryDy=0;" edge="1" parent="1" source="QVCPTjEd-6tTPL3POaar-31" target="QVCPTjEd-6tTPL3POaar-29">
          <mxGeometry width="50" height="50" relative="1" as="geometry">
            <mxPoint x="620" y="360" as="sourcePoint" />
            <mxPoint x="670" y="310" as="targetPoint" />
          </mxGeometry>
        </mxCell>
        <mxCell id="QVCPTjEd-6tTPL3POaar-33" value="M" style="text;html=1;align=center;verticalAlign=middle;resizable=0;points=[];autosize=1;strokeColor=none;fillColor=none;" vertex="1" parent="1">
          <mxGeometry x="475" y="348" width="30" height="30" as="geometry" />
        </mxCell>
        <mxCell id="QVCPTjEd-6tTPL3POaar-34" value="M" style="text;html=1;align=center;verticalAlign=middle;resizable=0;points=[];autosize=1;strokeColor=none;fillColor=none;" vertex="1" parent="1">
          <mxGeometry x="470" y="440" width="30" height="30" as="geometry" />
        </mxCell>
        <mxCell id="QVCPTjEd-6tTPL3POaar-35" value="Instruction_ID" style="ellipse;whiteSpace=wrap;html=1;" vertex="1" parent="1">
          <mxGeometry x="610" y="370" width="100" height="40" as="geometry" />
        </mxCell>
        <mxCell id="QVCPTjEd-6tTPL3POaar-36" value="phone" style="ellipse;whiteSpace=wrap;html=1;" vertex="1" parent="1">
          <mxGeometry x="700" y="420" width="80" height="30" as="geometry" />
        </mxCell>
        <mxCell id="QVCPTjEd-6tTPL3POaar-37" value="last_name" style="ellipse;whiteSpace=wrap;html=1;" vertex="1" parent="1">
          <mxGeometry x="803" y="410" width="95" height="32" as="geometry" />
        </mxCell>
        <mxCell id="QVCPTjEd-6tTPL3POaar-38" value="first_name" style="ellipse;whiteSpace=wrap;html=1;" vertex="1" parent="1">
          <mxGeometry x="840" y="350" width="90" height="30" as="geometry" />
        </mxCell>
        <mxCell id="QVCPTjEd-6tTPL3POaar-39" value="" style="endArrow=none;html=1;rounded=0;exitX=0.5;exitY=0;exitDx=0;exitDy=0;entryX=0.5;entryY=1;entryDx=0;entryDy=0;" edge="1" parent="1" source="QVCPTjEd-6tTPL3POaar-35" target="QVCPTjEd-6tTPL3POaar-10">
          <mxGeometry width="50" height="50" relative="1" as="geometry">
            <mxPoint x="740" y="360" as="sourcePoint" />
            <mxPoint x="790" y="310" as="targetPoint" />
          </mxGeometry>
        </mxCell>
        <mxCell id="QVCPTjEd-6tTPL3POaar-40" value="" style="endArrow=none;html=1;rounded=0;exitX=0.5;exitY=0;exitDx=0;exitDy=0;" edge="1" parent="1" source="QVCPTjEd-6tTPL3POaar-36">
          <mxGeometry width="50" height="50" relative="1" as="geometry">
            <mxPoint x="740" y="360" as="sourcePoint" />
            <mxPoint x="780" y="340" as="targetPoint" />
          </mxGeometry>
        </mxCell>
        <mxCell id="QVCPTjEd-6tTPL3POaar-41" value="" style="endArrow=none;html=1;rounded=0;entryX=0.5;entryY=0;entryDx=0;entryDy=0;exitX=0.5;exitY=1;exitDx=0;exitDy=0;" edge="1" parent="1" source="QVCPTjEd-6tTPL3POaar-10" target="QVCPTjEd-6tTPL3POaar-37">
          <mxGeometry width="50" height="50" relative="1" as="geometry">
            <mxPoint x="740" y="360" as="sourcePoint" />
            <mxPoint x="790" y="310" as="targetPoint" />
          </mxGeometry>
        </mxCell>
        <mxCell id="QVCPTjEd-6tTPL3POaar-42" value="" style="endArrow=none;html=1;rounded=0;entryX=0;entryY=0.5;entryDx=0;entryDy=0;" edge="1" parent="1" target="QVCPTjEd-6tTPL3POaar-38">
          <mxGeometry width="50" height="50" relative="1" as="geometry">
            <mxPoint x="780" y="340" as="sourcePoint" />
            <mxPoint x="790" y="310" as="targetPoint" />
          </mxGeometry>
        </mxCell>
        <mxCell id="QVCPTjEd-6tTPL3POaar-43" value="phone" style="ellipse;whiteSpace=wrap;html=1;" vertex="1" parent="1">
          <mxGeometry x="590" y="510" width="90" height="30" as="geometry" />
        </mxCell>
        <mxCell id="QVCPTjEd-6tTPL3POaar-44" value="last_name" style="ellipse;whiteSpace=wrap;html=1;" vertex="1" parent="1">
          <mxGeometry x="540" y="560" width="100" height="40" as="geometry" />
        </mxCell>
        <mxCell id="QVCPTjEd-6tTPL3POaar-45" value="first_name" style="ellipse;whiteSpace=wrap;html=1;" vertex="1" parent="1">
          <mxGeometry x="420" y="570" width="100" height="40" as="geometry" />
        </mxCell>
        <mxCell id="QVCPTjEd-6tTPL3POaar-46" value="Student_ID" style="ellipse;whiteSpace=wrap;html=1;" vertex="1" parent="1">
          <mxGeometry x="330" y="520" width="110" height="40" as="geometry" />
        </mxCell>
        <mxCell id="QVCPTjEd-6tTPL3POaar-47" value="" style="endArrow=none;html=1;rounded=0;exitX=1;exitY=0.5;exitDx=0;exitDy=0;entryX=0.5;entryY=1;entryDx=0;entryDy=0;" edge="1" parent="1" source="QVCPTjEd-6tTPL3POaar-46" target="QVCPTjEd-6tTPL3POaar-31">
          <mxGeometry width="50" height="50" relative="1" as="geometry">
            <mxPoint x="560" y="430" as="sourcePoint" />
            <mxPoint x="610" y="380" as="targetPoint" />
          </mxGeometry>
        </mxCell>
        <mxCell id="QVCPTjEd-6tTPL3POaar-48" value="" style="endArrow=none;html=1;rounded=0;exitX=0.5;exitY=0;exitDx=0;exitDy=0;" edge="1" parent="1" source="QVCPTjEd-6tTPL3POaar-45">
          <mxGeometry width="50" height="50" relative="1" as="geometry">
            <mxPoint x="560" y="430" as="sourcePoint" />
            <mxPoint x="510" y="500" as="targetPoint" />
          </mxGeometry>
        </mxCell>
        <mxCell id="QVCPTjEd-6tTPL3POaar-49" value="" style="endArrow=none;html=1;rounded=0;exitX=0;exitY=0;exitDx=0;exitDy=0;entryX=0.5;entryY=1;entryDx=0;entryDy=0;" edge="1" parent="1" source="QVCPTjEd-6tTPL3POaar-44" target="QVCPTjEd-6tTPL3POaar-31">
          <mxGeometry width="50" height="50" relative="1" as="geometry">
            <mxPoint x="560" y="430" as="sourcePoint" />
            <mxPoint x="610" y="380" as="targetPoint" />
          </mxGeometry>
        </mxCell>
        <mxCell id="QVCPTjEd-6tTPL3POaar-50" value="" style="endArrow=none;html=1;rounded=0;exitX=0;exitY=0.5;exitDx=0;exitDy=0;entryX=0.5;entryY=1;entryDx=0;entryDy=0;" edge="1" parent="1" source="QVCPTjEd-6tTPL3POaar-43" target="QVCPTjEd-6tTPL3POaar-31">
          <mxGeometry width="50" height="50" relative="1" as="geometry">
            <mxPoint x="560" y="430" as="sourcePoint" />
            <mxPoint x="610" y="380" as="targetPoint" />
          </mxGeometry>
        </mxCell>
        <mxCell id="QVCPTjEd-6tTPL3POaar-51" value="Course_ID" style="ellipse;whiteSpace=wrap;html=1;" vertex="1" parent="1">
          <mxGeometry x="290" y="230" width="120" height="50" as="geometry" />
        </mxCell>
        <mxCell id="QVCPTjEd-6tTPL3POaar-52" value="duration" style="ellipse;whiteSpace=wrap;html=1;" vertex="1" parent="1">
          <mxGeometry x="290" y="298" width="120" height="50" as="geometry" />
        </mxCell>
        <mxCell id="QVCPTjEd-6tTPL3POaar-53" value="course_name" style="ellipse;whiteSpace=wrap;html=1;" vertex="1" parent="1">
          <mxGeometry x="290" y="370" width="120" height="50" as="geometry" />
        </mxCell>
        <mxCell id="QVCPTjEd-6tTPL3POaar-54" value="" style="endArrow=none;html=1;rounded=0;exitX=1;exitY=1;exitDx=0;exitDy=0;entryX=0;entryY=0.5;entryDx=0;entryDy=0;" edge="1" parent="1" source="QVCPTjEd-6tTPL3POaar-51" target="QVCPTjEd-6tTPL3POaar-9">
          <mxGeometry width="50" height="50" relative="1" as="geometry">
            <mxPoint x="410" y="410" as="sourcePoint" />
            <mxPoint x="460" y="360" as="targetPoint" />
          </mxGeometry>
        </mxCell>
        <mxCell id="QVCPTjEd-6tTPL3POaar-55" value="" style="endArrow=none;html=1;rounded=0;exitX=1;exitY=0.5;exitDx=0;exitDy=0;entryX=0;entryY=0.5;entryDx=0;entryDy=0;" edge="1" parent="1" source="QVCPTjEd-6tTPL3POaar-52" target="QVCPTjEd-6tTPL3POaar-9">
          <mxGeometry width="50" height="50" relative="1" as="geometry">
            <mxPoint x="410" y="410" as="sourcePoint" />
            <mxPoint x="460" y="360" as="targetPoint" />
          </mxGeometry>
        </mxCell>
        <mxCell id="QVCPTjEd-6tTPL3POaar-56" value="" style="endArrow=none;html=1;rounded=0;exitX=0.922;exitY=0.192;exitDx=0;exitDy=0;exitPerimeter=0;" edge="1" parent="1" source="QVCPTjEd-6tTPL3POaar-53">
          <mxGeometry width="50" height="50" relative="1" as="geometry">
            <mxPoint x="410" y="410" as="sourcePoint" />
            <mxPoint x="450" y="320" as="targetPoint" />
          </mxGeometry>
        </mxCell>
      </root>
    </mxGraphModel>
  </diagram>
</mxfile>
